<?xml version="1.0" encoding="UTF-8"?>
<svg xmlns="http://www.w3.org/2000/svg" width="1366" height="119">
	<path fill="#fefefe" d="m457.188-.375 2.23.003C502.94-.203 546.813 13.607 586 32l3.108 1.442c16.68 7.758 32.985 15.924 48.375 26.03C653.297 69.775 670.171 78.496 687 87l2.475 1.254C716.021 101.584 745.126 112.479 775 114l2.754.164c37.208 1.164 73.971-15.957 105.825-33.232C925.023 58.467 972.906 50.986 1019 61l3.008.65c20.377 4.521 40.016 10.932 59.075 19.425 82.673 36.8 148.678 37.311 232.925 5.3 14.082-5.513 27.702-11.914 41.256-18.6l1.95-.962q2.629-1.302 5.255-2.61C1365 63 1365 63 1366 63v56H0V52a109 109 0 0 1 10.953 5.09l3.527 1.86 1.86.983C60.495 83.165 109.574 103.087 160 105l2.486.103c13.716.498 26.216-.736 39.514-4.103l2.084-.503c36.848-9.04 70.281-29.333 102.28-49.02C351.22 23.891 403.514-.533 457.188-.375"/>
</svg>
