<?xml version="1.0" encoding="UTF-8"?>
<svg xmlns="http://www.w3.org/2000/svg" width="1366" height="119">
	<path fill="#fefefe" d="M0 0h1366v56l-19-9c-75.335-35.013-148.093-53.395-228.008-24.496-11.81 4.363-23.44 9.034-34.93 14.183-26.34 11.788-53.511 19.94-82.062 24.313l-3.648.582C970.43 64.871 942.542 60.666 916 52l-2.322-.73c-14.311-4.583-27.366-11.632-40.641-18.558C859.964 25.902 847.022 19.656 833 15l-2.623-.879C774.69-4.235 726.534 11.907 675.957 37.31c-13.91 7.124-27.346 15.098-40.527 23.485C595.082 86.364 548.971 105.85 502 115l-3.128.624C426.118 129.644 357.768 99.854 297 62 239.28 26.132 183.216 4.362 115.218 20.198c-38.216 9.528-77.106 25.11-110.84 45.474C2 67 2 67 0 67z"/>
</svg>
