<?xml version="1.0" encoding="UTF-8"?>
<svg xmlns="http://www.w3.org/2000/svg" width="252" height="205">
	<path fill="#fefefe" d="m138 3 3.55 1.336c15.834 6.275 29.894 16.21 43.544 26.261 2.161 1.59 4.33 3.17 6.5 4.75Q198.827 40.634 206 46l1.97 1.473C217.568 54.696 226.43 62.59 235 71l2.219 2.176c8.191 8.694 14.133 19.792 15.094 31.699-.54 15.43-10.695 27.286-20.978 37.76a162 162 0 0 0-3.17 3.353c-5.146 5.472-11.222 9.915-17.165 14.473a1042 1042 0 0 0-6.16 4.785c-9.017 7.012-18.19 13.64-27.84 19.754l-1.866 1.187c-19.288 12.174-40.035 22.596-63.454 18.188-19.524-5.831-34.919-20.71-49.88-33.804-7.112-6.206-14.328-12.239-21.8-18.008-6.517-5.052-12.598-10.481-18.554-16.18a574 574 0 0 0-4.012-3.79C7.944 123.473.405 113.364-.312 99.875c.295-19.78 18.071-36.077 31.12-48.883 4.056-3.913 8.244-7.504 12.684-10.976 2.634-2.118 5.056-4.379 7.508-6.703C73.75 12.423 106.008-9.544 138 3"/>
</svg>
