<?xml version="1.0" encoding="UTF-8"?>
<svg xmlns="http://www.w3.org/2000/svg" width="252" height="205">
	<path fill="#6122ca" d="m138 3 3.55 1.336c22.915 9.079 43.102 25.377 62.556 40.22q1.85 1.411 3.71 2.814C217.456 54.653 226.355 62.56 235 71l2.441 2.328c7.966 8.169 14.036 19.96 14.809 31.36-.323 15.69-10.85 27.7-21.25 38.312l-2.098 2.215C223.671 150.64 217.91 155.337 212 160l-3.137 2.477a375 375 0 0 1-21.148 15.362q-2.692 1.826-5.375 3.665C161.583 195.627 140.798 207.096 115 205c-4.28-.846-8.04-2.183-12-4l-2.613-1.18c-13.58-6.8-25.314-17.37-36.67-27.316A1448 1448 0 0 0 55 164.938l-1.748-1.508c-4.013-3.436-8.131-6.705-12.315-9.93-6.463-5.004-12.496-10.373-18.396-16.027a561 561 0 0 0-4.553-4.29C8.243 123.838.364 113.546-.437 99.626.295 82.955 11.976 70.333 23 59l1.584-1.646c6.294-6.524 12.705-12.622 19.822-18.256 2.53-2.046 4.902-4.193 7.282-6.41C74.395 12.099 106.267-9.443 138 3"/>
	<path fill="#5b25c1" d="M51 33c0 3.32-.43 5.085-2 8-2.375 1.125-2.375 1.125-5 2a70 70 0 0 0-4 3l-2-1z"/>
	<path fill="#5824bc" d="M169 185h7c-3.2 2.743-6.005 4.63-10 6l-1-3h3z"/>
	<path fill="#5a29b6" d="m64 23 1 2a414 414 0 0 1-3.75 3.438l-2.11 1.933C57.013 31.991 55.61 32.583 53 33c3.152-4.413 6.555-7.008 11-10"/>
</svg>
