<?xml version="1.0" encoding="UTF-8"?>
<svg xmlns="http://www.w3.org/2000/svg" id="svg4206" width="135" height="135" viewBox="0 0 135 135">
	<path id="path4756" d="m56.722 48.542 21.19.062L88.88 67.55 78.036 86.247H56.659l-10.906-18.76z" style="fill:#8e7650;fill-opacity:1;fill-rule:evenodd;stroke:none;stroke-width:1px;stroke-linecap:butt;stroke-linejoin:miter;stroke-opacity:1"/>
	<path id="path4756-4" d="m56.722.016 21.19.062L88.88 19.024 78.036 37.721H56.66L45.753 18.96z" style="fill:#ffc200;fill-opacity:1;fill-rule:evenodd;stroke:none;stroke-width:1px;stroke-linecap:butt;stroke-linejoin:miter;stroke-opacity:1"/>
	<path id="path4756-4-7" d="m56.722 97.295 21.19.062 10.968 18.946L78.036 135H56.66l-10.907-18.759Z" style="fill:#ffc200;fill-opacity:1;fill-rule:evenodd;stroke:none;stroke-width:1px;stroke-linecap:butt;stroke-linejoin:miter;stroke-opacity:1"/>
	<path id="path4756-4-7-0" d="m98.666 72.694 21.19.063 10.968 18.946-10.844 18.696H98.604L87.697 91.64z" style="fill:#ffc200;fill-opacity:1;fill-rule:evenodd;stroke:none;stroke-width:1px;stroke-linecap:butt;stroke-linejoin:miter;stroke-opacity:1"/>
	<path id="path4756-4-7-0-4" d="m98.666 24.33 21.19.061 10.969 18.946-10.844 18.697H98.604L87.698 43.275z" style="fill:#ffc200;fill-opacity:1;fill-rule:evenodd;stroke:none;stroke-width:1px;stroke-linecap:butt;stroke-linejoin:miter;stroke-opacity:1"/>
	<path id="path4756-4-7-0-4-0" d="m14.947 24.33 21.146.061 10.946 18.946-10.822 18.697H14.884L4 43.275z" style="fill:#ffc200;fill-opacity:1;fill-rule:evenodd;stroke:none;stroke-width:1px;stroke-linecap:butt;stroke-linejoin:miter;stroke-opacity:1"/>
	<path id="path4756-4-7-0-4-5" d="m14.969 72.694 21.19.063 10.968 18.946-10.844 18.696H14.906L4 91.64Z" style="fill:#ffc200;fill-opacity:1;fill-rule:evenodd;stroke:none;stroke-width:1px;stroke-linecap:butt;stroke-linejoin:miter;stroke-opacity:1"/>
</svg>
