<?xml version="1.0" encoding="UTF-8"?>
<svg xmlns="http://www.w3.org/2000/svg" width="135" height="135" viewBox="0 0 135 135">
	<defs>
		<clipPath id="clip1">
			<path d="M94.645 122.82c-14.668 16.297-39.59 16.297-54.258 0C22.535 102.988 9.28 79.2 1.633 53.266-4.652 31.957 7.809 9.59 28.762 4.578a166.3 166.3 0 0 1 77.511 0c20.954 5.012 33.415 27.379 27.125 48.688-7.648 25.933-20.902 49.722-38.753 69.554m0 0"/>
		</clipPath>
		<clipPath id="clip2">
			<path d="M42 22h93v107H42Zm0 0"/>
		</clipPath>
		<clipPath id="clip3">
			<path d="M94.645 122.82c-14.668 16.297-39.59 16.297-54.258 0C22.535 102.988 9.28 79.2 1.633 53.266-4.652 31.957 7.809 9.59 28.762 4.578a166.3 166.3 0 0 1 77.511 0c20.954 5.012 33.415 27.379 27.125 48.688-7.648 25.933-20.902 49.722-38.753 69.554m0 0"/>
		</clipPath>
		<clipPath id="clip4">
			<path d="M40 20h95v111H40Zm0 0"/>
		</clipPath>
		<clipPath id="clip5">
			<path d="M94.645 122.82c-14.668 16.297-39.59 16.297-54.258 0C22.535 102.988 9.28 79.2 1.633 53.266-4.652 31.957 7.809 9.59 28.762 4.578a166.3 166.3 0 0 1 77.511 0c20.954 5.012 33.415 27.379 27.125 48.688-7.648 25.933-20.902 49.722-38.753 69.554m0 0"/>
		</clipPath>
		<clipPath id="clip6">
			<path d="M31 56h100v79H31Zm0 0"/>
		</clipPath>
		<clipPath id="clip7">
			<path d="M94.645 122.82c-14.668 16.297-39.59 16.297-54.258 0C22.535 102.988 9.28 79.2 1.633 53.266-4.652 31.957 7.809 9.59 28.762 4.578a166.3 166.3 0 0 1 77.511 0c20.954 5.012 33.415 27.379 27.125 48.688-7.648 25.933-20.902 49.722-38.753 69.554m0 0"/>
		</clipPath>
		<clipPath id="clip8">
			<path d="M12 86h29v36H12Zm0 0"/>
		</clipPath>
		<clipPath id="clip9">
			<path d="M94.645 122.82c-14.668 16.297-39.59 16.297-54.258 0C22.535 102.988 9.28 79.2 1.633 53.266-4.652 31.957 7.809 9.59 28.762 4.578a166.3 166.3 0 0 1 77.511 0c20.954 5.012 33.415 27.379 27.125 48.688-7.648 25.933-20.902 49.722-38.753 69.554m0 0"/>
		</clipPath>
		<clipPath id="clip10">
			<path d="M34 105h41v30H34Zm0 0"/>
		</clipPath>
		<clipPath id="clip11">
			<path d="M94.645 122.82c-14.668 16.297-39.59 16.297-54.258 0C22.535 102.988 9.28 79.2 1.633 53.266-4.652 31.957 7.809 9.59 28.762 4.578a166.3 166.3 0 0 1 77.511 0c20.954 5.012 33.415 27.379 27.125 48.688-7.648 25.933-20.902 49.722-38.753 69.554m0 0"/>
		</clipPath>
		<linearGradient id="linear0" x1="151260.141" x2="1058821" y1="1058820.875" y2="151260.094" gradientTransform="matrix(.12275 0 0 .12277 0 .003)" gradientUnits="userSpaceOnUse">
			<stop offset="0" style="stop-color:#342698;stop-opacity:1"/>
			<stop offset="1" style="stop-color:#3056b8;stop-opacity:1"/>
		</linearGradient>
	</defs>
	<g id="surface1">
		<g clip-path="url(#clip1)">
			<path d="M94.645 122.82c-14.668 16.305-39.59 16.305-54.258 0C22.539 102.984 9.28 79.207 1.633 53.266-4.652 31.957 7.809 9.59 28.762 4.582a166.1 166.1 0 0 1 77.508 0c20.957 5.008 33.414 27.375 27.128 48.684-7.644 25.941-20.902 49.718-38.753 69.554m0 0" style="stroke:none;fill-rule:nonzero;fill:url(#linear0)"/>
		</g>
		<g clip-path="url(#clip2)">
			<g clip-path="url(#clip3)">
				<path d="M96.34 23.227c1.605.289 3.191.675 4.762 1.168q2.32.562 4.605 1.277c-4.95-.246-9.488.183-13.64 1.351-4.333 1.239-8.09 3.165-11.243 5.84-3.351 2.703-5.894 6.215-7.562 10.621-1.742 4.711-2.223 10.164-1.266 16.375 1.02 6.641 3.547 13.493 7.684 20.438 4.394 7.293 10.007 14.18 16.82 20.5 6.945 6.215 14.73 11.504 23.2 15.766 8.484 4.246 16.905 6.796 25.066 7.656q-2.76 1.242-5.72 2.543-3.128.86-6.737 1.324c-6.594.836-13.543.566-20.746-.871-7.329-1.473-14.56-3.828-21.594-7.059-7.07-3.57-13.676-7.793-19.715-12.629-5.977-4.765-11.11-10.054-15.383-15.789-4.16-5.804-7.316-11.672-9.523-17.515-2.114-5.598-3.133-11.11-3.133-16.5 0-5.094.91-9.66 2.676-13.723 1.66-4.004 3.918-7.39 6.742-10.227 2.664-2.687 5.781-4.886 9.304-6.628 3.352-1.793 6.973-3.06 10.876-3.856 3.769-.762 7.734-1.14 11.894-1.191 4.063-.035 8.262.343 12.633 1.129m0 0" style="stroke:none;fill-rule:nonzero;fill:#fff;fill-opacity:1"/>
			</g>
		</g>
		<g clip-path="url(#clip4)">
			<g clip-path="url(#clip5)">
				<path d="M784.802 189.185a318 318 0 0 1 38.79 9.515 596 596 0 0 1 37.517 10.405c-40.317-2.005-77.293 1.496-111.119 11.01-35.29 10.087-65.901 25.775-91.58 47.572-27.303 22.02-48.019 50.628-61.606 86.522-14.192 38.376-18.106 82.798-10.31 133.393 8.305 54.096 28.893 109.91 62.592 166.488 35.798 59.41 81.525 115.51 137.021 166.996 56.578 50.628 119.997 93.713 188.985 128.43 69.115 34.59 137.721 55.368 204.195 62.369a5820 5820 0 0 1-46.586 20.715q-25.489 7.017-54.891 10.788c-53.714 6.81-110.323 4.614-169.001-7.096-59.696-11.997-118.597-31.185-175.907-57.5-57.596-29.085-111.405-63.484-160.6-102.878-48.686-38.822-90.5-81.907-125.311-128.62-33.89-47.287-59.601-95.082-77.58-142.686-17.215-45.6-25.52-90.499-25.52-134.412 0-41.494 7.414-78.693 21.797-111.787 13.524-32.616 31.917-60.205 54.923-83.307 21.702-21.893 47.095-39.808 75.798-54 27.302-14.606 56.8-24.916 88.59-31.408 30.707-6.205 63.005-9.291 96.894-9.705 33.094-.287 67.302 2.8 102.91 9.196Zm0 0" style="fill:none;stroke-width:24;stroke-linecap:butt;stroke-linejoin:round;stroke:#fff;stroke-opacity:1;stroke-miterlimit:4" transform="translate(0 .003)scale(.12276)"/>
			</g>
		</g>
		<g clip-path="url(#clip6)">
			<g clip-path="url(#clip7)">
				<path d="M32.543 67.262q.48-3.02 1.594-5.598a43 43 0 0 1 1.941-5.352c.207 7.391 1.656 14.622 4.309 21.653 2.566 6.765 5.953 12.965 10.14 18.586a67.7 67.7 0 0 0 13.516 13.945c4.973 3.832 10.25 6.692 15.836 8.656 5.414 1.903 10.68 2.785 15.836 2.723 5.043-.086 9.758-.969 14.176-2.637 4.25-1.734 8.14-4.164 11.71-7.304 3.575-3.168 6.544-7.012 8.926-11.551a802 802 0 0 1-.578 4.527 44 44 0 0 1-1.191 4.32c-1.25 3.832-2.895 7.282-4.934 10.399-2.023 3.082-4.297 5.808-6.824 8.2a45.8 45.8 0 0 1-8.531 5.929 38.7 38.7 0 0 1-9.785 3.633 48.4 48.4 0 0 1-11.196.96c-3.879-.124-7.855-.788-11.945-2.015a53.2 53.2 0 0 1-11.953-5.29 60.5 60.5 0 0 1-11.125-8.335 63.6 63.6 0 0 1-9.207-10.961q-4.437-6.335-7.094-13.371a70.6 70.6 0 0 1-3.793-15.086 54 54 0 0 1 .172-16.031m0 0" style="stroke:none;fill-rule:nonzero;fill:#fff;fill-opacity:1"/>
			</g>
		</g>
		<g clip-path="url(#clip8)">
			<g clip-path="url(#clip9)">
				<path d="M37.184 91.04c-.579-.946-1.243-1.767-1.989-2.442a21.4 21.4 0 0 0-2.136-2.262c1.449 3.906 2.148 7.82 2.195 11.602.039 3.363-.39 6.359-1.215 9-.66 2.292-1.644 4.246-2.871 5.902-1.105 1.488-2.371 2.605-3.781 3.426-1.278.75-2.59 1.203-3.953 1.386a12.2 12.2 0 0 1-3.793-.086 15.4 15.4 0 0 1-3.57-1.191 18.3 18.3 0 0 1-3.477-2.195q.391.49.8.98.416.456.872.91a21 21 0 0 0 2.476 2.075c.86.601 1.707 1.117 2.578 1.558.903.434 1.805.79 2.715 1.067.945.296 1.89.492 2.848.59a15.4 15.4 0 0 0 3.082-.024 12.3 12.3 0 0 0 3.215-.785 12.5 12.5 0 0 0 3.191-1.77 14.1 14.1 0 0 0 2.961-2.969 16.2 16.2 0 0 0 2.246-4.25 18.5 18.5 0 0 0 1.262-5.769c.125-2.23-.059-4.602-.59-7.059a24.6 24.6 0 0 0-3.066-7.695m0 0" style="stroke:none;fill-rule:nonzero;fill:#fff;fill-opacity:1"/>
			</g>
		</g>
		<g clip-path="url(#clip10)">
			<g clip-path="url(#clip11)">
				<path d="m38.004 105.586 36.387 24.43-1.989 15.664-37.504-23.176Zm0 0" style="stroke:none;fill-rule:nonzero;fill:#fff;fill-opacity:1"/>
			</g>
		</g>
	</g>
</svg>
