<?xml version="1.0" encoding="UTF-8" standalone="no"?>
<!-- Created with Inkscape (http://www.inkscape.org/) -->

<svg
   width="291.04196mm"
   height="291.06415mm"
   viewBox="0 0 291.04196 291.06415"
   version="1.1"
   id="svg233"
   inkscape:version="1.2.2 (732a01da63, 2022-12-09)"
   xmlns:inkscape="http://www.inkscape.org/namespaces/inkscape"
   xmlns:sodipodi="http://sodipodi.sourceforge.net/DTD/sodipodi-0.dtd"
   xmlns="http://www.w3.org/2000/svg"
   xmlns:svg="http://www.w3.org/2000/svg">
  <sodipodi:namedview
     id="namedview235"
     pagecolor="#ffffff"
     bordercolor="#000000"
     borderopacity="0.25"
     inkscape:showpageshadow="2"
     inkscape:pageopacity="0.0"
     inkscape:pagecheckerboard="0"
     inkscape:deskcolor="#d1d1d1"
     inkscape:document-units="mm"
     showgrid="false"
     inkscape:zoom="0.73851712"
     inkscape:cx="284.3536"
     inkscape:cy="487.46331"
     inkscape:window-width="1920"
     inkscape:window-height="1009"
     inkscape:window-x="-8"
     inkscape:window-y="-8"
     inkscape:window-maximized="1"
     inkscape:current-layer="g435" />
  <defs
     id="defs230">
    <clipPath
       clipPathUnits="userSpaceOnUse"
       id="cp1">
      <path
         d="m 771,1000.5 c -119.49,132.75 -322.52,132.75 -442,0 C 183.59,838.94 75.62,645.16 13.3,433.89 -37.91,260.3 63.6,78.1 234.29,37.26 442.03,-12.45 657.97,-12.45 865.71,37.26 1036.4,78.1 1137.91,260.3 1086.7,433.89 1024.38,645.16 916.41,838.94 771,1000.5 Z"
         id="path2" />
    </clipPath>
    <linearGradient
       id="g1"
       x1="151260.14"
       y1="1058820.9"
       x2="1058821"
       y2="151260.09"
       href="#P"
       gradientTransform="scale(0.99993067,1.0000693)"
       gradientUnits="userSpaceOnUse">
      <stop
         stop-color="#342698"
         id="stop6" />
      <stop
         offset="1"
         stop-color="#3056b8"
         id="stop8" />
    </linearGradient>
  </defs>
  <g
     inkscape:label="Layer 1"
     inkscape:groupmode="layer"
     id="layer1"
     transform="translate(-93.440423,-16.402785)">
    <g
       id="g444">
      <g
         id="g435">
        <g
           clip-path="url(#cp1)"
           id="g25"
           transform="matrix(0.26458333,0,0,0.26458333,93.440086,16.408738)">
          <path
             class="a"
             d="m 771,1000.5 c -119.5,132.8 -322.5,132.8 -442,0 C 183.6,838.9 75.6,645.2 13.3,433.9 -37.9,260.3 63.6,78.1 234.3,37.3 442,-12.5 658,-12.5 865.7,37.3 c 170.7,40.8 272.2,223 221,396.6 -62.3,211.3 -170.3,405 -315.7,566.6 z"
             id="path15"
             style="fill:url(#g1)" />
          <path
             class="b"
             d="m 784.8,189.2 q 19.6,3.5 38.8,9.5 18.9,4.6 37.5,10.4 c -40.3,-2 -77.3,1.5 -111.1,11 -35.3,10.1 -65.9,25.8 -91.6,47.6 -27.3,22 -48,50.6 -61.6,86.5 -14.2,38.4 -18.1,82.8 -10.3,133.4 8.3,54.1 28.9,109.9 62.6,166.5 35.8,59.4 81.5,115.5 137,167 56.6,50.6 120,93.7 189,128.4 69.1,34.6 137.7,55.4 204.2,62.4 q -22.5,10.1 -46.6,20.7 -25.5,7 -54.9,10.8 c -53.7,6.8 -110.3,4.6 -169,-7.1 -59.7,-12 -118.6,-31.2 -175.9,-57.5 C 675.3,949.7 621.5,915.3 572.3,875.9 523.6,837.1 481.8,794 447,747.3 413.1,700 387.4,652.2 369.4,604.6 352.2,559 343.9,514.1 343.9,470.2 c 0,-41.5 7.4,-78.7 21.8,-111.8 13.5,-32.6 31.9,-60.2 54.9,-83.3 21.7,-21.9 47.1,-39.8 75.8,-54 27.3,-14.6 56.8,-24.9 88.6,-31.4 30.7,-6.2 63,-9.3 96.9,-9.7 33.1,-0.3 67.3,2.8 102.9,9.2 z"
             id="path17"
             style="fill:#ffffff;stroke:#ffffff;stroke-width:24;stroke-linejoin:round;paint-order:stroke fill markers" />
          <path
             class="c"
             d="m 265.1,547.9 q 3.9,-24.6 13,-45.6 6.6,-22.7 15.8,-43.6 c 1.7,60.2 13.5,119.1 35.1,176.4 20.9,55.1 48.5,105.6 82.6,151.4 31.4,43.4 68.2,81.2 110.1,113.6 40.5,31.2 83.5,54.5 129,70.5 44.1,15.5 87,22.7 129,22.2 41.1,-0.7 79.5,-7.9 115.5,-21.5 34.6,-14.1 66.3,-33.9 95.4,-59.5 29.1,-25.8 53.3,-57.1 72.7,-94.1 q -2.3,18.3 -4.7,36.9 -3.9,17.5 -9.7,35.2 c -10.2,31.2 -23.6,59.3 -40.2,84.7 -16.5,25.1 -35,47.3 -55.6,66.8 -21.6,18.9 -44.7,35 -69.5,48.3 -25,13.4 -51.5,23.2 -79.7,29.6 -29.7,6.1 -60,8.7 -91.2,7.8 -31.6,-1 -64,-6.4 -97.3,-16.4 -34,-10.3 -66.5,-24.6 -97.4,-43.1 -33,-19.3 -63.3,-42 -90.6,-67.9 -28.1,-26.6 -53.1,-56.4 -75,-89.3 -24.1,-34.4 -43.4,-70.7 -57.8,-108.9 -14.7,-39.4 -25,-80.3 -30.9,-122.9 -6,-43.7 -5.6,-87.3 1.4,-130.6 z"
             id="path19"
             style="fill:#ffffff" />
          <path
             class="c"
             d="m 302.9,741.6 c -4.7,-7.7 -10.1,-14.4 -16.2,-19.9 q -8.2,-10 -17.4,-18.4 c 11.8,31.8 17.5,63.7 17.9,94.5 0.3,27.4 -3.2,51.8 -9.9,73.3 -5.4,18.7 -13.4,34.6 -23.4,48.1 -9,12.1 -19.3,21.2 -30.8,27.9 -10.4,6.1 -21.1,9.8 -32.2,11.3 -10.4,1.4 -20.6,1.1 -30.9,-0.7 -9.6,-1.9 -19.3,-5.1 -29.1,-9.7 -9.6,-4.6 -19,-10.5 -28.3,-17.9 q 3.2,4 6.5,8 3.4,3.7 7.1,7.4 c 6.6,6.4 13.3,12 20.2,16.9 7,4.9 13.9,9.1 21,12.7 q 11,5.3 22.1,8.7 c 7.7,2.4 15.4,4 23.2,4.8 8.4,0.8 16.7,0.7 25.1,-0.2 8.7,-0.9 17.4,-3 26.2,-6.4 9.3,-3.5 18,-8.3 26,-14.4 9.1,-6.8 17.2,-14.8 24.1,-24.2 7.5,-10.1 13.7,-21.6 18.3,-34.6 5.8,-14.6 9.3,-30.3 10.3,-47 1,-18.2 -0.5,-37.5 -4.8,-57.5 -4.6,-21.7 -12.9,-42.8 -25,-62.7 z"
             id="path21"
             style="fill:#ffffff" />
          <path
             class="c"
             d="M 309.6,860.1 606,1059.1 589.8,1186.7 284.3,997.9 Z"
             id="path23"
             style="fill:#ffffff" />
        </g>
      </g>
    </g>
  </g>
</svg>
