<?xml version="1.0" encoding="UTF-8"?>
<svg xmlns="http://www.w3.org/2000/svg" xmlns:xlink="http://www.w3.org/1999/xlink" width="135px" height="135px" viewBox="0 0 135 135" version="1.1">
<defs>
<clipPath id="clip1">
  <path d="M 94.644531 122.820312 C 79.976562 139.117188 55.054688 139.117188 40.386719 122.820312 C 22.535156 102.988281 9.28125 79.199219 1.632812 53.265625 C -4.652344 31.957031 7.808594 9.589844 28.761719 4.578125 C 54.261719 -1.527344 80.769531 -1.527344 106.273438 4.578125 C 127.226562 9.589844 139.6875 31.957031 133.398438 53.265625 C 125.75 79.199219 112.496094 102.988281 94.644531 122.820312 Z M 94.644531 122.820312 "/>
</clipPath>
<linearGradient id="linear0" gradientUnits="userSpaceOnUse" x1="151260.140625" y1="1058820.875" x2="1058821" y2="151260.09375" gradientTransform="matrix(0.122749,0,0,0.122766,-0.000155749,0.0027619)">
<stop offset="0" style="stop-color:rgb(20.392157%,14.901961%,59.607843%);stop-opacity:1;"/>
<stop offset="1" style="stop-color:rgb(18.823529%,33.72549%,72.156863%);stop-opacity:1;"/>
</linearGradient>
<clipPath id="clip2">
  <path d="M 42 22 L 135 22 L 135 129 L 42 129 Z M 42 22 "/>
</clipPath>
<clipPath id="clip3">
  <path d="M 94.644531 122.820312 C 79.976562 139.117188 55.054688 139.117188 40.386719 122.820312 C 22.535156 102.988281 9.28125 79.199219 1.632812 53.265625 C -4.652344 31.957031 7.808594 9.589844 28.761719 4.578125 C 54.261719 -1.527344 80.769531 -1.527344 106.273438 4.578125 C 127.226562 9.589844 139.6875 31.957031 133.398438 53.265625 C 125.75 79.199219 112.496094 102.988281 94.644531 122.820312 Z M 94.644531 122.820312 "/>
</clipPath>
<clipPath id="clip4">
  <path d="M 40 20 L 135 20 L 135 131 L 40 131 Z M 40 20 "/>
</clipPath>
<clipPath id="clip5">
  <path d="M 94.644531 122.820312 C 79.976562 139.117188 55.054688 139.117188 40.386719 122.820312 C 22.535156 102.988281 9.28125 79.199219 1.632812 53.265625 C -4.652344 31.957031 7.808594 9.589844 28.761719 4.578125 C 54.261719 -1.527344 80.769531 -1.527344 106.273438 4.578125 C 127.226562 9.589844 139.6875 31.957031 133.398438 53.265625 C 125.75 79.199219 112.496094 102.988281 94.644531 122.820312 Z M 94.644531 122.820312 "/>
</clipPath>
<clipPath id="clip6">
  <path d="M 31 56 L 131 56 L 131 135 L 31 135 Z M 31 56 "/>
</clipPath>
<clipPath id="clip7">
  <path d="M 94.644531 122.820312 C 79.976562 139.117188 55.054688 139.117188 40.386719 122.820312 C 22.535156 102.988281 9.28125 79.199219 1.632812 53.265625 C -4.652344 31.957031 7.808594 9.589844 28.761719 4.578125 C 54.261719 -1.527344 80.769531 -1.527344 106.273438 4.578125 C 127.226562 9.589844 139.6875 31.957031 133.398438 53.265625 C 125.75 79.199219 112.496094 102.988281 94.644531 122.820312 Z M 94.644531 122.820312 "/>
</clipPath>
<clipPath id="clip8">
  <path d="M 12 86 L 41 86 L 41 122 L 12 122 Z M 12 86 "/>
</clipPath>
<clipPath id="clip9">
  <path d="M 94.644531 122.820312 C 79.976562 139.117188 55.054688 139.117188 40.386719 122.820312 C 22.535156 102.988281 9.28125 79.199219 1.632812 53.265625 C -4.652344 31.957031 7.808594 9.589844 28.761719 4.578125 C 54.261719 -1.527344 80.769531 -1.527344 106.273438 4.578125 C 127.226562 9.589844 139.6875 31.957031 133.398438 53.265625 C 125.75 79.199219 112.496094 102.988281 94.644531 122.820312 Z M 94.644531 122.820312 "/>
</clipPath>
<clipPath id="clip10">
  <path d="M 34 105 L 75 105 L 75 135 L 34 135 Z M 34 105 "/>
</clipPath>
<clipPath id="clip11">
  <path d="M 94.644531 122.820312 C 79.976562 139.117188 55.054688 139.117188 40.386719 122.820312 C 22.535156 102.988281 9.28125 79.199219 1.632812 53.265625 C -4.652344 31.957031 7.808594 9.589844 28.761719 4.578125 C 54.261719 -1.527344 80.769531 -1.527344 106.273438 4.578125 C 127.226562 9.589844 139.6875 31.957031 133.398438 53.265625 C 125.75 79.199219 112.496094 102.988281 94.644531 122.820312 Z M 94.644531 122.820312 "/>
</clipPath>
</defs>
<g id="surface1">
<g clip-path="url(#clip1)" clip-rule="nonzero">
<path style=" stroke:none;fill-rule:nonzero;fill:url(#linear0);" d="M 94.644531 122.820312 C 79.976562 139.125 55.054688 139.125 40.386719 122.820312 C 22.539062 102.984375 9.28125 79.207031 1.632812 53.265625 C -4.652344 31.957031 7.808594 9.589844 28.761719 4.582031 C 54.257812 -1.53125 80.773438 -1.53125 106.269531 4.582031 C 127.226562 9.589844 139.683594 31.957031 133.398438 53.265625 C 125.753906 79.207031 112.496094 102.984375 94.644531 122.820312 Z M 94.644531 122.820312 "/>
</g>
<g clip-path="url(#clip2)" clip-rule="nonzero">
<g clip-path="url(#clip3)" clip-rule="nonzero">
<path style=" stroke:none;fill-rule:nonzero;fill:rgb(100%,100%,100%);fill-opacity:1;" d="M 96.339844 23.226562 C 97.945312 23.515625 99.53125 23.902344 101.101562 24.394531 C 102.648438 24.769531 104.183594 25.195312 105.707031 25.671875 C 100.757812 25.425781 96.21875 25.855469 92.066406 27.023438 C 87.734375 28.261719 83.976562 30.1875 80.824219 32.863281 C 77.472656 35.566406 74.929688 39.078125 73.261719 43.484375 C 71.519531 48.195312 71.039062 53.648438 71.996094 59.859375 C 73.015625 66.5 75.542969 73.351562 79.679688 80.296875 C 84.074219 87.589844 89.6875 94.476562 96.5 100.796875 C 103.445312 107.011719 111.230469 112.300781 119.699219 116.5625 C 128.183594 120.808594 136.605469 123.359375 144.765625 124.21875 C 142.925781 125.046875 141.019531 125.894531 139.046875 126.761719 C 136.960938 127.335938 134.714844 127.777344 132.308594 128.085938 C 125.714844 128.921875 118.765625 128.652344 111.5625 127.214844 C 104.234375 125.742188 97.003906 123.386719 89.96875 120.15625 C 82.898438 116.585938 76.292969 112.363281 70.253906 107.527344 C 64.277344 102.761719 59.144531 97.472656 54.871094 91.738281 C 50.710938 85.933594 47.554688 80.066406 45.347656 74.222656 C 43.234375 68.625 42.214844 63.113281 42.214844 57.722656 C 42.214844 52.628906 43.125 48.0625 44.890625 44 C 46.550781 39.996094 48.808594 36.609375 51.632812 33.773438 C 54.296875 31.085938 57.414062 28.886719 60.9375 27.144531 C 64.289062 25.351562 67.910156 24.085938 71.8125 23.289062 C 75.582031 22.527344 79.546875 22.148438 83.707031 22.097656 C 87.769531 22.0625 91.96875 22.441406 96.339844 23.226562 Z M 96.339844 23.226562 "/>
</g>
</g>
<g clip-path="url(#clip4)" clip-rule="nonzero">
<g clip-path="url(#clip5)" clip-rule="nonzero">
<path style="fill:none;stroke-width:24;stroke-linecap:butt;stroke-linejoin:round;stroke:rgb(100%,100%,100%);stroke-opacity:1;stroke-miterlimit:4;" d="M 784.802329 189.185104 C 797.880755 191.539857 810.800077 194.690135 823.592115 198.699579 C 836.193226 201.754394 848.698875 205.222882 861.109061 209.105043 C 820.791867 207.100321 783.815878 210.600629 749.990166 220.115105 C 714.700689 230.202359 684.088897 245.890107 658.409359 267.687484 C 631.10695 289.707609 610.391486 318.314678 596.803924 354.208754 C 582.611762 392.584867 578.697781 437.006969 586.493923 487.602342 C 594.799201 541.698023 615.387381 597.512039 649.085809 654.089758 C 684.884422 713.499545 730.611184 769.599949 786.106989 821.08631 C 842.684708 871.713504 906.10394 914.799123 975.091845 949.515823 C 1044.207034 984.105238 1112.813087 1004.884344 1179.287133 1011.884962 C 1164.299447 1018.631011 1148.770804 1025.536166 1132.701205 1032.600426 C 1115.708797 1037.278111 1097.411728 1040.873883 1077.809998 1043.387741 C 1024.096168 1050.197433 967.486628 1048.001785 908.808724 1036.291661 C 849.112548 1024.295148 790.211897 1005.107091 732.902295 978.791133 C 675.306304 949.706749 621.497011 915.308259 572.301762 875.913874 C 523.615648 837.092267 481.802868 794.006648 446.990706 747.293435 C 413.101352 700.007445 387.389993 652.212319 369.411134 604.608119 C 352.195979 559.008642 343.8907 514.109226 343.8907 470.19626 C 343.8907 428.70169 351.304991 391.502954 365.688078 358.409125 C 379.211999 325.792611 397.60453 298.203813 420.611106 275.101775 C 442.31302 253.208934 467.70617 235.293717 496.408702 221.101556 C 523.711111 206.495722 553.209168 196.185721 584.998337 189.694239 C 615.705591 183.489147 648.003895 180.402511 681.893249 179.988838 C 714.987078 179.702449 749.194641 182.789085 784.802329 189.185104 Z M 784.802329 189.185104 " transform="matrix(0.122757,0,0,0.122757,-0.000155749,0.0027619)"/>
</g>
</g>
<g clip-path="url(#clip6)" clip-rule="nonzero">
<g clip-path="url(#clip7)" clip-rule="nonzero">
<path style=" stroke:none;fill-rule:nonzero;fill:rgb(100%,100%,100%);fill-opacity:1;" d="M 32.542969 67.261719 C 32.863281 65.25 33.394531 63.382812 34.136719 61.664062 C 34.679688 59.804688 35.324219 58.023438 36.078125 56.3125 C 36.285156 63.703125 37.734375 70.933594 40.386719 77.964844 C 42.953125 84.730469 46.339844 90.929688 50.527344 96.550781 C 54.382812 101.878906 58.898438 106.519531 64.042969 110.496094 C 69.015625 114.328125 74.292969 117.1875 79.878906 119.152344 C 85.292969 121.054688 90.558594 121.9375 95.714844 121.875 C 100.757812 121.789062 105.472656 120.90625 109.890625 119.238281 C 114.140625 117.503906 118.03125 115.074219 121.601562 111.933594 C 125.175781 108.765625 128.144531 104.921875 130.527344 100.382812 C 130.339844 101.878906 130.148438 103.390625 129.949219 104.910156 C 129.632812 106.34375 129.234375 107.785156 128.757812 109.230469 C 127.507812 113.0625 125.863281 116.511719 123.824219 119.628906 C 121.800781 122.710938 119.527344 125.4375 117 127.828125 C 114.347656 130.148438 111.511719 132.125 108.46875 133.757812 C 105.398438 135.402344 102.144531 136.605469 98.683594 137.390625 C 95.039062 138.140625 91.320312 138.460938 87.488281 138.351562 C 83.609375 138.226562 79.632812 137.5625 75.542969 136.335938 C 71.371094 135.074219 67.382812 133.316406 63.589844 131.046875 C 59.535156 128.675781 55.816406 125.890625 52.464844 122.710938 C 49.015625 119.445312 45.949219 115.789062 43.257812 111.75 C 40.300781 107.527344 37.933594 103.070312 36.164062 98.378906 C 34.359375 93.542969 33.09375 88.523438 32.371094 83.292969 C 31.632812 77.929688 31.683594 72.578125 32.542969 67.261719 Z M 32.542969 67.261719 "/>
</g>
</g>
<g clip-path="url(#clip8)" clip-rule="nonzero">
<g clip-path="url(#clip9)" clip-rule="nonzero">
<path style=" stroke:none;fill-rule:nonzero;fill:rgb(100%,100%,100%);fill-opacity:1;" d="M 37.183594 91.039062 C 36.605469 90.09375 35.941406 89.273438 35.195312 88.597656 C 34.523438 87.777344 33.8125 87.023438 33.058594 86.335938 C 34.507812 90.242188 35.207031 94.15625 35.253906 97.9375 C 35.292969 101.300781 34.863281 104.296875 34.039062 106.9375 C 33.378906 109.230469 32.394531 111.183594 31.167969 112.839844 C 30.0625 114.328125 28.796875 115.445312 27.386719 116.265625 C 26.109375 117.015625 24.796875 117.46875 23.433594 117.652344 C 22.15625 117.824219 20.90625 117.789062 19.640625 117.566406 C 18.460938 117.332031 17.273438 116.941406 16.070312 116.375 C 14.890625 115.8125 13.738281 115.085938 12.59375 114.179688 C 12.855469 114.507812 13.121094 114.832031 13.394531 115.160156 C 13.671875 115.464844 13.960938 115.765625 14.265625 116.070312 C 15.074219 116.855469 15.898438 117.542969 16.742188 118.144531 C 17.601562 118.746094 18.449219 119.261719 19.320312 119.703125 C 20.222656 120.136719 21.125 120.492188 22.035156 120.769531 C 22.980469 121.066406 23.925781 121.261719 24.882812 121.359375 C 25.914062 121.457031 26.933594 121.445312 27.964844 121.335938 C 29.03125 121.226562 30.101562 120.96875 31.179688 120.550781 C 32.320312 120.121094 33.390625 119.53125 34.371094 118.78125 C 35.488281 117.949219 36.484375 116.964844 37.332031 115.8125 C 38.25 114.570312 39.011719 113.160156 39.578125 111.5625 C 40.289062 109.773438 40.71875 107.84375 40.839844 105.792969 C 40.964844 103.5625 40.78125 101.191406 40.25 98.734375 C 39.6875 96.074219 38.667969 93.480469 37.183594 91.039062 Z M 37.183594 91.039062 "/>
</g>
</g>
<g clip-path="url(#clip10)" clip-rule="nonzero">
<g clip-path="url(#clip11)" clip-rule="nonzero">
<path style=" stroke:none;fill-rule:nonzero;fill:rgb(100%,100%,100%);fill-opacity:1;" d="M 38.003906 105.585938 L 74.390625 130.015625 L 72.402344 145.679688 L 34.898438 122.503906 Z M 38.003906 105.585938 "/>
</g>
</g>
</g>
</svg>
